<svg xmlns="http://www.w3.org/2000/svg" viewBox="0 0 32 32">
  <!-- Coffee Match — espresso circle, champagne cup, heart in the steam -->
  <circle cx="16" cy="16" r="16" fill="#1a100c"/>
  <!-- heart rising from the cup -->
  <path d="M14.5 12.4c-2-1.5-3.2-2.7-3.2-4.1a1.85 1.85 0 0 1 3.2-1.15A1.85 1.85 0 0 1 17.7 8.3c0 1.4-1.2 2.6-3.2 4.1z" fill="#d4a574"/>
  <!-- cup -->
  <path d="M8.5 15.5h12v3.5a5 5 0 0 1-5 5h-2a5 5 0 0 1-5-5z" fill="none" stroke="#d4a574" stroke-width="2" stroke-linejoin="round"/>
  <!-- handle -->
  <path d="M20.5 16.75h1a2.6 2.6 0 1 1 0 5.2h-.75" fill="none" stroke="#d4a574" stroke-width="2" stroke-linecap="round"/>
</svg>
